/* XPM */
static char *result[] = {
/* columns rows colors chars-per-pixel */
"16 16 46 1 ",
"  c black",
". c gray1",
"X c gray4",
"o c gray1",
"O c black",
"+ c black",
"@ c #0E0E0E",
"# c gray17",
"$ c gray24",
"% c #4C4C4C",
"& c gray14",
"* c gray15",
"= c #040404",
"- c #010101",
"; c #101010",
": c gray5",
"> c gray3",
", c #1D1D1D",
"< c #5B5B5B",
"1 c #202020",
"2 c black",
"3 c #0E0E0E",
"4 c #191919",
"5 c #1D1D1D",
"6 c #19191A",
"7 c #3A3A3A",
"8 c #343434",
"9 c #010101",
"0 c #090909",
"q c gray10",
"w c #060606",
"e c #2A2A2A",
"r c #313131",
"t c #040404",
"y c gray10",
"u c gray5",
"i c gray23",
"p c #111111",
"a c #020202",
"s c gray7",
"d c gray14",
"f c #161616",
"g c black",
"h c gray1",
"j c #020202",
"k c white",
/* pixels */
"                ",
"                ",
"                ",
"                ",
"      .Xo O+    ",
"     @#$%&*=    ",
"    -;:>,<12    ",
"     345678     ",
"     90qwer     ",
"      tyuip     ",
"      asdf      ",
"      ghj       ",
"                ",
"                ",
"                ",
"                "
};
