/* XPM */
static char *result[] = {
/* columns rows colors chars-per-pixel */
"32 32 114 2 ",
"   c black",
".  c #010101",
"X  c #1B1B1B",
"o  c #484848",
"O  c #656565",
"+  c gray43",
"@  c gray35",
"#  c #202020",
"$  c black",
"%  c #111111",
"&  c #101010",
"*  c gray1",
"=  c gray18",
"-  c gray27",
";  c #2F2F2F",
":  c #232323",
">  c #2F2F2F",
",  c #5F5F5F",
"<  c #9B9B9B",
"1  c gray35",
"2  c #040404",
"3  c #606161",
"4  c gray36",
"5  c black",
"6  c #191919",
"7  c gray10",
"8  c #010101",
"9  c gray11",
"0  c #979797",
"q  c gray35",
"w  c #0E0E0E",
"e  c #0E0E0E",
"r  c #020202",
"t  c gray3",
"y  c #040404",
"u  c gray5",
"i  c #0E0E0E",
"p  c #0E0E0E",
"a  c #0E0E0E",
"s  c #0E0E0E",
"d  c #090909",
"f  c #222222",
"g  c gray64",
"h  c #202020",
"j  c black",
"k  c #010101",
"l  c #232323",
"z  c gray12",
"x  c #1B1B1B",
"c  c #1B1B1B",
"v  c gray11",
"b  c gray11",
"n  c #2A2A2A",
"m  c gray6",
"M  c gray44",
"N  c gray36",
"B  c black",
"V  c gray12",
"C  c gray11",
"Z  c gray7",
"A  c #232323",
"S  c #252626",
"D  c #232323",
"F  c #222222",
"G  c #060606",
"H  c #434343",
"J  c #797979",
"K  c #010101",
"L  c #020202",
"P  c #070707",
"I  c #232323",
"U  c #131313",
"Y  c #090909",
"T  c #010101",
"R  c #3C3C3C",
"E  c #767676",
"W  c #060606",
"Q  c gray13",
"!  c gray10",
"~  c gray4",
"^  c #565656",
"/  c gray34",
"(  c #060606",
")  c gray13",
"_  c gray12",
"`  c #0C0C0C",
"'  c #0B0B0B",
"]  c #7C7C7C",
"[  c gray12",
"{  c #020202",
"}  c gray13",
"|  c gray15",
" . c #040404",
".. c #040404",
"X. c #555555",
"o. c #4C4C4C",
"O. c #010101",
"+. c #040404",
"@. c gray3",
"#. c #191919",
"$. c #4C4C4C",
"%. c #444444",
"&. c #040404",
"*. c gray2",
"=. c #151515",
"-. c gray15",
";. c #2F2F2F",
":. c #191919",
">. c #010101",
",. c black",
"<. c #010101",
"1. c #010101",
"2. c black",
"3. c white",
/* pixels */
"                                                                ",
"                                                                ",
"                                                                ",
"                                                                ",
"                                                                ",
"                                                                ",
"                                                                ",
"                                                                ",
"                                                                ",
"                                                                ",
"                      . X o O + @ # $   % &                     ",
"                    * = - ; : > , < 1 2 3 4                     ",
"                  5 6 7 8         9 0 q w e                     ",
"                  r t y u i p a s d f g h                       ",
"                  j k l z x c v b n m M N                       ",
"                    B V C Z A S D F G H J                       ",
"                      K L P I U Y T   R E                       ",
"                          W Q ! ~     ^ /                       ",
"                          ( ) _ `   ' ] [                       ",
"                          { } |  ...X.o.                        ",
"                          O.+.@.#.$.%.&.                        ",
"                          *.=.-.;.:.>.                          ",
"                          ,.<.1.2.                              ",
"                                                                ",
"                                                                ",
"                                                                ",
"                                                                ",
"                                                                ",
"                                                                ",
"                                                                ",
"                                                                ",
"                                                                "
};
