/* XPM */
static char *result[] = {
/* columns rows colors chars-per-pixel */
"64 64 114 2 ",
"   c black",
".  c #010101",
"X  c #020202",
"o  c gray1",
"O  c #040404",
"+  c gray2",
"@  c #060606",
"#  c #070707",
"$  c gray3",
"%  c #090909",
"&  c gray4",
"*  c #0B0B0B",
"=  c #0C0C0C",
"-  c gray6",
";  c #101010",
":  c #121213",
">  c #131313",
",  c gray8",
"<  c #151515",
"1  c #161616",
"2  c #181818",
"3  c #191919",
"4  c gray10",
"5  c #1D1D1D",
"6  c #1E1E1E",
"7  c gray12",
"8  c gray13",
"9  c #222222",
"0  c gray14",
"q  c #252525",
"w  c gray15",
"e  c #272727",
"r  c gray16",
"t  c #2A2A2A",
"y  c gray17",
"u  c #2D2D2D",
"i  c gray18",
"p  c #2F2F2F",
"a  c gray19",
"s  c #313131",
"d  c #313232",
"f  c #323232",
"g  c gray20",
"h  c #343434",
"j  c #353535",
"k  c gray21",
"l  c #373737",
"z  c gray22",
"x  c #393939",
"c  c #3A3A3A",
"v  c #3C3C3C",
"b  c gray24",
"n  c #3E3E3E",
"m  c #3F3F3F",
"M  c gray25",
"N  c #414141",
"B  c gray26",
"V  c #444444",
"C  c gray27",
"Z  c #464646",
"A  c #494949",
"S  c gray29",
"D  c #4C4C4C",
"F  c gray30",
"G  c #4E4E4E",
"H  c gray32",
"J  c gray34",
"K  c #5A5A5A",
"L  c #5B5B5B",
"P  c gray37",
"I  c #5F5F5F",
"U  c #676767",
"Y  c #6F6F6F",
"T  c #6F6F70",
"R  c #797979",
"E  c #7E7E7E",
"W  c #818181",
"Q  c gray51",
"!  c #848484",
"~  c #868686",
"^  c #868687",
"/  c gray53",
"(  c #898989",
")  c gray54",
"_  c #8D8D8D",
"`  c #9A9A9A",
"'  c gray62",
"]  c #9F9F9F",
"[  c gray65",
"{  c #AEAEAE",
"}  c #AFAFAF",
"|  c gray69",
" . c #B9B9B9",
".. c gray73",
"X. c #C0C0C0",
"o. c #C1C1C1",
"O. c gray76",
"+. c #C5C5C5",
"@. c #C6C6C6",
"#. c gray78",
"$. c #CBCBCB",
"%. c #D2D2D2",
"&. c gray83",
"*. c #D7D7D7",
"=. c #D8D8D8",
"-. c gray85",
";. c #DDDDDD",
":. c #E2E2E2",
">. c gray90",
",. c #E6E6E6",
"<. c #E7E7E7",
"1. c #E9E9E9",
"2. c #ECECEC",
"3. c #EEEEEE",
/* pixels */
"                                                                                                                                ",
"                                                                                                                                ",
"                                                                                                                                ",
"                                                                                                                                ",
"                                                                                                                                ",
"                                                                                                                                ",
"                                                                                                                                ",
"                                                                                                                                ",
"                                                                                                                                ",
"                                                                                                                                ",
"                                                                                                                                ",
"                                                                                                                                ",
"                                                                                                                                ",
"                                                                                                                                ",
"                                                                                                                                ",
"                                                                                                                                ",
"                                                                                                                                ",
"                                                                                                                                ",
"                                                                                                                                ",
"                                                                                                                                ",
"                                                      = 7 u u 7 * .               . .                                           ",
"                                                @ x Q } o.$.&.=.+.) c @           e 9                                           ",
"                                              e E _ P k 9 7 t S / %.2.] r     X a ..| r .                                       ",
"                                          . c T f +               1 Y :.-.A   . t | [ 0 .                                       ",
"                                          i A &                       h #.>.A     8 5                                           ",
"                                        < a O                           e $.*.r                                                 ",
"                                      X 3 @                               n 1.' +                                               ",
"                                      X O     O - ; ; ; ; ; ; ; ; ; ; @   . ~ 3.c                                               ",
"                                            & b m m n n n n n m M M B F ;   t ,.(                                               ",
"                                            u a                       s s   + { +.=                                             ",
"                                            7 G w , : < * 0 q 0 q 0 0 N 2     R :.6                                             ",
"                                            . 5 a 4 2 4 c v p j a p i 1       K 1.y                                             ",
"                                                        n > . h @             H <.y                                             ",
"                                                        n >   1 o             I ;.6                                             ",
"                                                        n > . x #             ! O.*                                             ",
"                                                        n > X C $           %  ./                                               ",
"                                                        n > X C $           x =.z                                               ",
"                                                        n > X C $         + ' ` O                                               ",
"                                                        d u 3 Z o         L @.w                                                 ",
"                                                        $ l m 1         V X.C                                                   ",
"                                                                    @ J } V                                                     ",
"                                                                % h W ^ q                                                       ",
"                                                    o ; 4 0 g D U U h +                                                         ",
"                                                      + - 4 7 4 = .                                                             ",
"                                                                                                                                ",
"                                                                                                                                ",
"                                                                                                                                ",
"                                                                                                                                ",
"                                                                                                                                ",
"                                                                                                                                ",
"                                                                                                                                ",
"                                                                                                                                ",
"                                                                                                                                ",
"                                                                                                                                ",
"                                                                                                                                ",
"                                                                                                                                ",
"                                                                                                                                ",
"                                                                                                                                ",
"                                                                                                                                ",
"                                                                                                                                ",
"                                                                                                                                ",
"                                                                                                                                ",
"                                                                                                                                ",
"                                                                                                                                "
};
