<svg height="256pt" preserveAspectRatio="xMidYMid meet" viewBox="0 0 256 256" width="256pt" xmlns="http://www.w3.org/2000/svg"><path d="m0 1280v-1280h1280 1280v1280 1280h-1280-1280zm1392 398c92-46 167-122 211-215 30-64 32-74 32-183 0-108-2-119-32-182-76-160-232-260-402-257l-66 2 72 7c328 35 492 406 295 665-149 197-438 219-624 48-41-38-47-41-30-17 30 44 94 100 144 125 79 41 119 49 224 46 94-2 106-5 176-39zm338-28c5 0 10-4 10-10 0-5-6-10-14-10s-23-12-34-27c-19-25-20-26-26-6-3 11-19 26-34 33-27 12-27 12-5 21 12 4 28 17 35 28 12 19 12 19 35-5 12-13 27-24 33-24zm-298-237c24-22 23-52-4-80-20-22-29-23-145-23h-123v-150c0-137 2-150 19-160 26-13 33-13 57 4 16 12 20 31 25 108l5 93 2-92c2-81-1-96-18-113-28-28-64-25-90 7-19 24-20 37-18 167l3 141 133 5c117 4 135 7 148 24 18 25 18 35-3 58-15 16-36 18-244 18h-229l-15-24c-20-30-7-63 28-70 12-3 31-7 42-9 11-3 3-5-17-6-65-2-97 48-62 97 15 22 19 22 251 22 206 0 239-2 255-17zm-339-100c-7-2-19-2-25 0-7 3-2 5 12 5s19-2 13-5zm174-65c-3-7-5-2-5 12s2 19 5 13c2-7 2-19 0-25z" transform="matrix(.1 0 0 -.1 0 256)"/></svg>